<svg width="48" height="48" viewBox="0 0 48 48" fill="none" xmlns="http://www.w3.org/2000/svg">
<path fill-rule="evenodd" clip-rule="evenodd" d="M31.0696 5.61602L42.3836 16.928C42.7552 17.2995 43.0499 17.7405 43.2511 18.2259C43.4522 18.7113 43.5557 19.2316 43.5557 19.757C43.5557 20.2824 43.4522 20.8027 43.2511 21.2881C43.0499 21.7735 42.7552 22.2146 42.3836 22.586L35.3396 29.632L35.3136 29.656L35.2875 29.682L26.9696 38H39.9996C40.53 38 41.0387 38.2107 41.4138 38.5858C41.7888 38.9609 41.9996 39.4696 41.9996 40C41.9996 40.5304 41.7888 41.0392 41.4138 41.4142C41.0387 41.7893 40.53 42 39.9996 42H17.7856C16.9902 41.9993 16.2276 41.6828 15.6656 41.12L5.61355 31.072C5.24195 30.7006 4.94716 30.2595 4.74604 29.7741C4.54492 29.2887 4.44141 28.7684 4.44141 28.243C4.44141 27.7176 4.54492 27.1973 4.74604 26.7119C4.94716 26.2265 5.24195 25.7855 5.61355 25.414L25.4136 5.61402C26.1637 4.86413 27.1809 4.44287 28.2416 4.44287C29.3022 4.44287 30.3194 4.86413 31.0696 5.61402V5.61602ZM31.0696 28.242L21.3136 38H18.1996L8.44355 28.242L19.7576 16.928L31.0696 28.242ZM33.8996 25.414L22.5856 14.1L28.2416 8.44402L39.5556 19.758L33.8996 25.414Z" fill="#CEEDC7"/>
</svg>
