<svg width="48" height="49" viewBox="0 0 48 49" fill="none" xmlns="http://www.w3.org/2000/svg">
<path d="M24 4.5C28.7739 4.5 33.3523 6.39642 36.7279 9.77208C40.1036 13.1477 42 17.7261 42 22.5C42 28.648 38.648 33.68 35.116 37.29C33.351 39.0738 31.4256 40.6913 29.364 42.122L28.512 42.702L28.112 42.968L27.358 43.448L26.686 43.858L25.854 44.342C25.289 44.6636 24.6501 44.8327 24 44.8327C23.3499 44.8327 22.711 44.6636 22.146 44.342L21.314 43.858L20.274 43.218L19.89 42.968L19.07 42.422C16.846 40.9167 14.7741 39.1978 12.884 37.29C9.352 33.676 6 28.648 6 22.5C6 17.7261 7.89642 13.1477 11.2721 9.77208C14.6477 6.39642 19.2261 4.5 24 4.5ZM24 16.5C23.2121 16.5 22.4319 16.6552 21.7039 16.9567C20.9759 17.2583 20.3145 17.7002 19.7574 18.2574C19.2002 18.8145 18.7583 19.4759 18.4567 20.2039C18.1552 20.9319 18 21.7121 18 22.5C18 23.2879 18.1552 24.0681 18.4567 24.7961C18.7583 25.5241 19.2002 26.1855 19.7574 26.7426C20.3145 27.2998 20.9759 27.7417 21.7039 28.0433C22.4319 28.3448 23.2121 28.5 24 28.5C25.5913 28.5 27.1174 27.8679 28.2426 26.7426C29.3679 25.6174 30 24.0913 30 22.5C30 20.9087 29.3679 19.3826 28.2426 18.2574C27.1174 17.1321 25.5913 16.5 24 16.5Z" fill="#F75A68"/>
</svg>
