<svg width="48" height="48" viewBox="0 0 48 48" fill="none" xmlns="http://www.w3.org/2000/svg">
<path d="M24 6C24.5098 6.00057 25.0001 6.19576 25.3707 6.5457C25.7414 6.89564 25.9645 7.37391 25.9943 7.88279C26.0242 8.39167 25.8587 8.89276 25.5315 9.28366C25.2043 9.67457 24.7402 9.92579 24.234 9.986L24 10H14C13.5101 10.0001 13.0373 10.1799 12.6713 10.5054C12.3052 10.8309 12.0713 11.2795 12.014 11.766L12 12V36C12.0001 36.4899 12.1799 36.9627 12.5054 37.3287C12.8309 37.6948 13.2795 37.9287 13.766 37.986L14 38H23C23.5098 38.0006 24.0001 38.1958 24.3707 38.5457C24.7414 38.8956 24.9645 39.3739 24.9943 39.8828C25.0242 40.3917 24.8587 40.8928 24.5315 41.2837C24.2043 41.6746 23.7402 41.9258 23.234 41.986L23 42H14C12.4696 42.0001 10.997 41.4153 9.88348 40.3654C8.76999 39.3155 8.09978 37.8798 8.01 36.352L8 36V12C7.99991 10.4696 8.58465 8.99697 9.63457 7.88348C10.6845 6.76999 12.1202 6.09978 13.648 6.01L14 6H24ZM35.414 16.928L41.07 22.586C41.4449 22.9611 41.6556 23.4697 41.6556 24C41.6556 24.5303 41.4449 25.0389 41.07 25.414L35.414 31.072C35.0387 31.447 34.5298 31.6576 33.9993 31.6574C33.4688 31.6572 32.96 31.4463 32.585 31.071C32.21 30.6957 31.9994 30.1868 31.9996 29.6563C31.9998 29.1258 32.2107 28.617 32.586 28.242L34.828 26H24C23.4696 26 22.9609 25.7893 22.5858 25.4142C22.2107 25.0391 22 24.5304 22 24C22 23.4696 22.2107 22.9609 22.5858 22.5858C22.9609 22.2107 23.4696 22 24 22H34.828L32.586 19.758C32.2107 19.383 31.9998 18.8742 31.9996 18.3437C31.9994 17.8132 32.21 17.3043 32.585 16.929C32.96 16.5537 33.4688 16.3428 33.9993 16.3426C34.5298 16.3424 35.0387 16.553 35.414 16.928Z" fill="#CEEDC7"/>
</svg>
