<svg width="451" height="109" viewBox="0 0 451 109" fill="none" xmlns="http://www.w3.org/2000/svg">
<path d="M129.616 34.472V20.392H137.36V65H129.808V61.416C126.928 63.592 121.36 65.768 114.576 65.768C103.824 65.768 93.0081 60.264 93.0081 47.528C93.0081 33.768 104.4 29.416 113.296 29.416C120.528 29.416 126.16 31.464 129.616 34.472ZM100.624 47.656C100.624 56.104 108.304 59.752 116.432 59.752C122.768 59.752 127.888 57.384 129.68 53.032V42.664C127.824 37.992 122.512 35.624 115.984 35.624C108.432 35.624 100.624 39.016 100.624 47.656Z" fill="white"/>
<path d="M168.846 29.352V36.776C161.614 36.776 153.23 37.8 152.27 45.16V65H144.27V30.12H151.758V36.136C154.574 30.632 160.27 29.352 168.846 29.352Z" fill="white"/>
<path d="M180.257 30.12V65H172.257V30.12H180.257Z" fill="white"/>
<path d="M231.101 30.12L211.645 65H203.517L183.805 30.12H192.317L207.933 57.256L223.293 30.12H231.101Z" fill="white"/>
<path d="M273.558 47.976V49.576H237.142C238.102 56.68 244.566 60.2 252.566 60.2C259.286 60.2 263.958 58.024 265.366 54.44H273.75C272.086 60.776 263.062 65.768 252.694 65.768C239.51 65.768 229.654 59.688 229.654 47.592C229.654 35.432 239.51 29.352 252.566 29.352C266.006 29.352 273.558 39.208 273.558 47.976ZM237.334 44.648H265.494C265.046 40.68 260.374 34.984 252.502 34.984C244.694 34.984 238.55 37.8 237.334 44.648Z" fill="white"/>
<path d="M303.611 29.352V36.776C296.379 36.776 287.995 37.8 287.035 45.16V65H279.035V30.12H286.523V36.136C289.339 30.632 295.035 29.352 303.611 29.352Z" fill="white"/>
<path d="M350.75 50.152V65H338.974V50.472C338.974 40.936 336.03 38.44 330.654 38.44C326.686 38.44 323.614 39.976 319.838 43.24V65H308.19V20.392H319.582V34.408C322.782 31.464 326.878 29.352 332.446 29.352C341.342 29.352 350.75 32.744 350.75 50.152Z" fill="white"/>
<path d="M398.639 30.12V65H387.631V60.776C384.431 63.656 380.079 65.768 374.511 65.768C365.615 65.768 356.335 62.312 356.335 44.968V30.12H368.111V44.712C368.111 54.184 370.927 56.68 374.895 56.68C379.631 56.68 383.535 54.76 386.991 51.88V30.12H398.639Z" fill="white"/>
<path d="M416.59 20.392V34.088C419.662 31.208 424.782 29.288 431.31 29.288C439.63 29.288 449.742 34.088 449.742 47.528C449.742 60.264 440.014 65.768 430.222 65.768C423.95 65.768 419.47 64.296 416.206 62.312V65H405.198V20.392H416.59ZM438.542 47.656C438.542 41.32 433.422 38.44 427.342 38.44C421.198 38.44 415.63 41.576 415.63 47.336C415.63 53.096 421.262 57 427.406 57C433.358 57 438.542 54.12 438.542 47.656Z" fill="white"/>
<path fill-rule="evenodd" clip-rule="evenodd" d="M18.7451 33.1983C26.4728 24.4099 33.5 13.6694 33.5 0H43.5C43.5 17.3306 34.5272 30.3939 26.2549 39.8017C20.1364 46.76 16.127 51.8632 13.5918 56.776C11.1483 61.511 10 66.2253 10 72.5V81.2499L0 81.2499V72.5C0 64.7747 1.46639 58.4665 4.70525 52.1902C7.85234 46.0918 12.5929 40.195 18.7451 33.1983Z" fill="white"/>
<path fill-rule="evenodd" clip-rule="evenodd" d="M52.7451 33.1983C60.4728 24.4099 67.5 13.6694 67.5 0H77.5C77.5 17.3306 68.5272 30.3939 60.2549 39.8017C54.1364 46.76 50.127 51.8632 47.5918 56.776C45.1483 61.511 44 66.2253 44 72.5V81.2499L34 81.2499V72.5C34 64.7747 35.4664 58.4665 38.7053 52.1902C41.8523 46.0918 46.5929 40.195 52.7451 33.1983Z" fill="white"/>
<path d="M274.844 107.32H272.24V88.532H274.788V90.632C275.516 89.288 277.112 88.224 279.296 88.224C283.328 88.224 285.484 91.332 285.484 95.252C285.484 99.256 283.16 102.364 279.212 102.364C277.14 102.364 275.572 101.384 274.844 100.18V107.32ZM282.796 95.252C282.796 92.564 281.284 90.548 278.82 90.548C276.412 90.548 274.816 92.564 274.816 95.252C274.816 98.024 276.412 100.012 278.82 100.012C281.256 100.012 282.796 98.024 282.796 95.252ZM287.998 98.388C287.998 95.98 289.762 94.636 292.086 94.3L295.726 93.768C296.538 93.656 296.762 93.236 296.762 92.76C296.762 91.444 295.894 90.352 293.85 90.352C292.002 90.352 290.966 91.5 290.798 93.068L288.278 92.48C288.558 89.904 290.882 88.112 293.794 88.112C297.826 88.112 299.394 90.408 299.394 93.04V99.788C299.394 100.964 299.506 101.664 299.562 102H296.986C296.93 101.664 296.846 101.16 296.846 100.18C296.258 101.132 294.914 102.42 292.506 102.42C289.762 102.42 287.998 100.516 287.998 98.388ZM292.87 100.208C295.026 100.208 296.762 99.172 296.762 96.232V95.616L292.646 96.232C291.526 96.4 290.686 97.044 290.686 98.248C290.686 99.256 291.526 100.208 292.87 100.208ZM310.97 88.392V91.192C310.578 91.136 310.186 91.108 309.822 91.108C307.61 91.108 306.126 92.284 306.126 95.252V102H303.494V88.532H306.07V90.884C307.05 88.812 308.73 88.308 310.102 88.308C310.466 88.308 310.83 88.364 310.97 88.392ZM312.935 98.388C312.935 95.98 314.699 94.636 317.023 94.3L320.663 93.768C321.475 93.656 321.699 93.236 321.699 92.76C321.699 91.444 320.831 90.352 318.787 90.352C316.939 90.352 315.903 91.5 315.735 93.068L313.215 92.48C313.495 89.904 315.819 88.112 318.731 88.112C322.763 88.112 324.331 90.408 324.331 93.04V99.788C324.331 100.964 324.443 101.664 324.499 102H321.923C321.867 101.664 321.783 101.16 321.783 100.18C321.195 101.132 319.851 102.42 317.443 102.42C314.699 102.42 312.935 100.516 312.935 98.388ZM317.807 100.208C319.963 100.208 321.699 99.172 321.699 96.232V95.616L317.583 96.232C316.463 96.4 315.623 97.044 315.623 98.248C315.623 99.256 316.463 100.208 317.807 100.208ZM338.035 107.32H335.431V88.532H337.979V90.632C338.707 89.288 340.303 88.224 342.487 88.224C346.519 88.224 348.675 91.332 348.675 95.252C348.675 99.256 346.351 102.364 342.403 102.364C340.331 102.364 338.763 101.384 338.035 100.18V107.32ZM345.987 95.252C345.987 92.564 344.475 90.548 342.011 90.548C339.603 90.548 338.007 92.564 338.007 95.252C338.007 98.024 339.603 100.012 342.011 100.012C344.447 100.012 345.987 98.024 345.987 95.252ZM351.189 98.388C351.189 95.98 352.953 94.636 355.277 94.3L358.917 93.768C359.729 93.656 359.953 93.236 359.953 92.76C359.953 91.444 359.085 90.352 357.041 90.352C355.193 90.352 354.157 91.5 353.989 93.068L351.469 92.48C351.749 89.904 354.073 88.112 356.985 88.112C361.017 88.112 362.585 90.408 362.585 93.04V99.788C362.585 100.964 362.697 101.664 362.753 102H360.177C360.121 101.664 360.037 101.16 360.037 100.18C359.449 101.132 358.105 102.42 355.697 102.42C352.953 102.42 351.189 100.516 351.189 98.388ZM356.061 100.208C358.217 100.208 359.953 99.172 359.953 96.232V95.616L355.837 96.232C354.717 96.4 353.877 97.044 353.877 98.248C353.877 99.256 354.717 100.208 356.061 100.208ZM374.161 88.392V91.192C373.769 91.136 373.377 91.108 373.013 91.108C370.801 91.108 369.317 92.284 369.317 95.252V102H366.685V88.532H369.261V90.884C370.241 88.812 371.921 88.308 373.293 88.308C373.657 88.308 374.021 88.364 374.161 88.392ZM382.486 90.548C380.358 90.548 378.398 92.116 378.398 95.252C378.398 98.332 380.33 99.984 382.514 99.984C385.034 99.984 385.958 98.276 386.266 97.212L388.59 98.22C387.946 100.152 386.014 102.42 382.514 102.42C378.594 102.42 375.71 99.34 375.71 95.252C375.71 91.052 378.65 88.112 382.486 88.112C386.07 88.112 387.918 90.352 388.478 92.396L386.098 93.404C385.762 92.088 384.782 90.548 382.486 90.548ZM393.249 93.88H400.613C400.557 91.948 399.297 90.436 396.917 90.436C394.705 90.436 393.361 92.144 393.249 93.88ZM401.005 97.38L403.273 98.164C402.517 100.544 400.361 102.42 397.225 102.42C393.613 102.42 390.449 99.788 390.449 95.224C390.449 90.996 393.501 88.112 396.889 88.112C401.033 88.112 403.357 90.968 403.357 95.168C403.357 95.504 403.329 95.84 403.301 96.008H393.165C393.221 98.416 394.957 100.096 397.225 100.096C399.409 100.096 400.501 98.892 401.005 97.38ZM409.321 102H406.717V88.532H409.321V102ZM406.129 83.436C406.129 82.372 406.969 81.532 408.005 81.532C409.069 81.532 409.909 82.372 409.909 83.436C409.909 84.472 409.069 85.312 408.005 85.312C406.969 85.312 406.129 84.472 406.129 83.436ZM421.275 88.392V91.192C420.883 91.136 420.491 91.108 420.127 91.108C417.915 91.108 416.431 92.284 416.431 95.252V102H413.799V88.532H416.375V90.884C417.355 88.812 419.035 88.308 420.407 88.308C420.771 88.308 421.135 88.364 421.275 88.392ZM429.711 100.068C431.951 100.068 433.911 98.388 433.911 95.252C433.911 92.144 431.951 90.464 429.711 90.464C427.471 90.464 425.511 92.144 425.511 95.252C425.511 98.388 427.471 100.068 429.711 100.068ZM429.711 88.112C433.743 88.112 436.599 91.164 436.599 95.252C436.599 99.368 433.743 102.42 429.711 102.42C425.679 102.42 422.823 99.368 422.823 95.252C422.823 91.164 425.679 88.112 429.711 88.112ZM438.707 98.5L441.087 97.66C441.255 99.06 442.319 100.18 444.223 100.18C445.707 100.18 446.519 99.34 446.519 98.388C446.519 97.548 445.903 96.904 444.783 96.652L442.487 96.148C440.387 95.7 439.127 94.272 439.127 92.368C439.127 90.072 441.283 88.112 443.915 88.112C447.611 88.112 448.759 90.52 449.039 91.724L446.715 92.592C446.603 91.892 446.043 90.352 443.915 90.352C442.571 90.352 441.675 91.22 441.675 92.144C441.675 92.956 442.179 93.544 443.215 93.768L445.399 94.244C447.835 94.776 449.123 96.26 449.123 98.248C449.123 100.152 447.527 102.42 444.195 102.42C440.499 102.42 438.931 100.04 438.707 98.5Z" fill="white"/>
</svg>
