<svg width="204" height="37" viewBox="0 0 204 37" fill="none" xmlns="http://www.w3.org/2000/svg">
<path d="M58.7927 15.698V9.28619H62.3053V29.6H58.8798V27.9679C57.5734 28.9588 55.0478 29.9497 51.9706 29.9497C47.0936 29.9497 42.1875 27.4433 42.1875 21.6435C42.1875 15.3774 47.3548 13.3956 51.39 13.3956C54.6704 13.3956 57.225 14.3282 58.7927 15.698ZM45.6421 21.7018C45.6421 25.5489 49.1257 27.2101 52.8125 27.2101C55.6865 27.2101 58.0089 26.1318 58.8217 24.15V19.4285C57.9798 17.301 55.5703 16.2226 52.6093 16.2226C49.1837 16.2226 45.6421 17.7673 45.6421 21.7018Z" fill="white"/>
<path d="M76.5869 13.3664V16.7472C73.3065 16.7472 69.5036 17.2135 69.0682 20.5652V29.6H65.4394V13.7162H68.8359V16.4558C70.1132 13.9493 72.6969 13.3664 76.5869 13.3664Z" fill="white"/>
<path d="M81.7631 13.7162V29.6H78.1344V13.7162H81.7631Z" fill="white"/>
<path d="M104.825 13.7162L96.0003 29.6H92.3135L83.3722 13.7162H87.2332L94.3165 26.0735L101.284 13.7162H104.825Z" fill="white"/>
<path d="M124.084 21.8475V22.5762H107.566C108.001 25.8112 110.933 27.4142 114.562 27.4142C117.61 27.4142 119.729 26.4232 120.368 24.7911H124.171C123.416 27.6765 119.323 29.9497 114.62 29.9497C108.64 29.9497 104.169 27.181 104.169 21.6727C104.169 16.1352 108.64 13.3664 114.562 13.3664C120.658 13.3664 124.084 17.8547 124.084 21.8475ZM107.653 20.332H120.426C120.223 18.525 118.104 15.9312 114.533 15.9312C110.991 15.9312 108.204 17.2135 107.653 20.332Z" fill="white"/>
<path d="M137.715 13.3664V16.7472C134.435 16.7472 130.632 17.2135 130.197 20.5652V29.6H126.568V13.7162H129.964V16.4558C131.242 13.9493 133.825 13.3664 137.715 13.3664Z" fill="white"/>
<path d="M159.098 22.8385V29.6H153.756V22.9842C153.756 18.6416 152.421 17.505 149.982 17.505C148.182 17.505 146.789 18.2045 145.076 19.6908V29.6H139.793V9.28619H144.96V15.6689C146.412 14.3282 148.269 13.3664 150.795 13.3664C154.83 13.3664 159.098 14.9111 159.098 22.8385Z" fill="white"/>
<path d="M180.82 13.7162V29.6H175.827V27.6765C174.375 28.988 172.401 29.9497 169.876 29.9497C165.84 29.9497 161.631 28.3759 161.631 20.4777V13.7162H166.973V20.3612C166.973 24.6746 168.25 25.8112 170.05 25.8112C172.198 25.8112 173.969 24.9369 175.536 23.6254V13.7162H180.82Z" fill="white"/>
<path d="M188.962 9.28619V15.5231C190.356 14.2116 192.678 13.3373 195.639 13.3373C199.413 13.3373 204 15.5231 204 21.6435C204 27.4433 199.587 29.9497 195.145 29.9497C192.301 29.9497 190.268 29.2794 188.788 28.3759V29.6H183.795V9.28619H188.962ZM198.919 21.7018C198.919 18.8165 196.597 17.505 193.839 17.505C191.052 17.505 188.527 18.9331 188.527 21.5561C188.527 24.1791 191.081 25.9569 193.868 25.9569C196.568 25.9569 198.919 24.6454 198.919 21.7018Z" fill="white"/>
<path fill-rule="evenodd" clip-rule="evenodd" d="M8.50268 15.118C12.0079 11.1159 15.1954 6.22483 15.1954 0H19.7313C19.7313 7.8921 15.6613 13.8409 11.909 18.1251C9.13375 21.2938 7.31511 23.6177 6.16513 25.855C5.05679 28.0112 4.53594 30.158 4.53594 33.0154V37L0 37V33.0154C0 29.4974 0.665144 26.6248 2.13427 23.7666C3.56177 20.9895 5.71207 18.3042 8.50268 15.118Z" fill="white"/>
<path fill-rule="evenodd" clip-rule="evenodd" d="M23.9246 15.118C27.4298 11.1159 30.6173 6.22483 30.6173 0H35.1532C35.1532 7.8921 31.0832 13.8409 27.3309 18.1251C24.5556 21.2938 22.737 23.6177 21.587 25.855C20.4787 28.0112 19.9578 30.158 19.9578 33.0154V37L15.4219 37V33.0154C15.4219 29.4974 16.087 26.6248 17.5561 23.7666C18.9836 20.9895 21.1339 18.3042 23.9246 15.118Z" fill="white"/>
</svg>
