<svg width="556" height="100" viewBox="0 0 556 100" fill="none" xmlns="http://www.w3.org/2000/svg">
<path d="M159.967 42.4269V25.0977H169.525V79.9999H160.204V75.5888C156.65 78.2669 149.778 80.9451 141.406 80.9451C128.136 80.9451 114.787 74.1709 114.787 58.4958C114.787 41.5604 128.847 36.2041 139.826 36.2041C148.751 36.2041 155.702 38.7247 159.967 42.4269ZM124.187 58.6534C124.187 69.0509 133.665 73.5408 143.696 73.5408C151.516 73.5408 157.835 70.6263 160.046 65.27V52.5094C157.756 46.7592 151.2 43.8448 143.143 43.8448C133.823 43.8448 124.187 48.0195 124.187 58.6534Z" fill="#242424"/>
<path d="M208.383 36.1254V45.2626C199.458 45.2626 189.11 46.5229 187.926 55.5814V79.9999H178.052V37.0706H187.294V44.4749C190.769 37.7007 197.799 36.1254 208.383 36.1254Z" fill="#242424"/>
<path d="M222.467 37.0706V79.9999H212.594V37.0706H222.467Z" fill="#242424"/>
<path d="M285.216 37.0706L261.204 79.9999H251.173L226.845 37.0706H237.35L256.623 70.4688L275.58 37.0706H285.216Z" fill="#242424"/>
<path d="M337.616 59.0472V61.0165H292.673C293.857 69.7599 301.835 74.0922 311.708 74.0922C320.002 74.0922 325.768 71.414 327.506 67.0029H337.853C335.799 74.8011 324.662 80.9451 311.866 80.9451C295.595 80.9451 283.431 73.462 283.431 58.5746C283.431 43.6084 295.595 36.1254 311.708 36.1254C328.296 36.1254 337.616 48.2558 337.616 59.0472ZM292.909 54.9512H327.664C327.111 50.0675 321.345 43.0571 311.629 43.0571C301.993 43.0571 294.41 46.5229 292.909 54.9512Z" fill="#242424"/>
<path d="M374.706 36.1254V45.2626C365.78 45.2626 355.433 46.5229 354.248 55.5814V79.9999H344.375V37.0706H353.616V44.4749C357.092 37.7007 364.122 36.1254 374.706 36.1254Z" fill="#242424"/>
<path d="M432.884 61.7254V79.9999H418.35V62.1192C418.35 50.3826 414.717 47.3106 408.082 47.3106C403.185 47.3106 399.393 49.2011 394.733 53.2183V79.9999H380.358V25.0977H394.417V42.3481C398.367 38.7247 403.422 36.1254 410.294 36.1254C421.273 36.1254 432.884 40.3001 432.884 61.7254Z" fill="#242424"/>
<path d="M491.987 37.0706V79.9999H478.401V74.8011C474.452 78.3457 469.081 80.9451 462.209 80.9451C451.23 80.9451 439.777 76.6916 439.777 55.3451V37.0706H454.31V55.03C454.31 66.6879 457.786 69.7599 462.683 69.7599C468.528 69.7599 473.346 67.3968 477.611 63.8522V37.0706H491.987Z" fill="#242424"/>
<path d="M514.141 25.0977V41.9543C517.932 38.4097 524.251 36.0466 532.308 36.0466C542.576 36.0466 555.056 41.9543 555.056 58.4958C555.056 74.1709 543.05 80.9451 530.965 80.9451C523.224 80.9451 517.695 79.1334 513.667 76.6916V79.9999H500.081V25.0977H514.141ZM541.233 58.6534C541.233 50.8552 534.914 47.3106 527.41 47.3106C519.828 47.3106 512.956 51.1703 512.956 58.2595C512.956 65.3488 519.907 70.1537 527.489 70.1537C534.835 70.1537 541.233 66.6091 541.233 58.6534Z" fill="#242424"/>
<path fill-rule="evenodd" clip-rule="evenodd" d="M23.1346 40.8595C32.6719 30.043 41.3446 16.8239 41.3446 0H53.6863C53.6863 21.33 42.6123 37.4079 32.4029 48.9867C24.8517 57.5508 19.9034 63.8317 16.7745 69.8783C13.7588 75.7059 12.3417 81.5081 12.3417 89.2309V100L0 100V89.2309C0 79.7228 1.80977 71.9588 5.80707 64.2341C9.69109 56.7284 15.5418 49.4708 23.1346 40.8595Z" fill="#242424"/>
<path fill-rule="evenodd" clip-rule="evenodd" d="M65.0956 40.8595C74.6328 30.043 83.3055 16.8239 83.3055 0H95.6472C95.6472 21.33 84.5732 37.4079 74.3638 48.9867C66.8126 57.5508 61.8643 63.8317 58.7354 69.8783C55.7198 75.7059 54.3026 81.5081 54.3026 89.2309V100L41.9609 100V89.2309C41.9609 79.7228 43.7707 71.9588 47.768 64.2341C51.652 56.7284 57.5027 49.4708 65.0956 40.8595Z" fill="#242424"/>
</svg>
