<svg width="84" height="80" viewBox="0 0 84 80" fill="none" xmlns="http://www.w3.org/2000/svg">
<path fill-rule="evenodd" clip-rule="evenodd" d="M39.9994 6.66663C21.5894 6.66663 6.66602 21.59 6.66602 40C6.66602 58.41 21.5894 73.3333 39.9994 73.3333C58.4094 73.3333 73.3327 58.41 73.3327 40C73.3327 21.59 58.4094 6.66663 39.9994 6.66663ZM45.576 41.19C45.3341 41.3956 45.1478 41.6587 45.0342 41.9552C44.9206 42.2517 44.8834 42.572 44.926 42.8866L46.3427 51.3933C46.3824 51.632 46.3696 51.8764 46.3053 52.1096C46.241 52.3428 46.1267 52.5593 45.9703 52.7439C45.8139 52.9285 45.6193 53.0768 45.3998 53.1786C45.1803 53.2804 44.9413 53.3332 44.6993 53.3333H35.2994C35.0574 53.3332 34.8184 53.2804 34.5989 53.1786C34.3795 53.0768 34.1848 52.9285 34.0284 52.7439C33.872 52.5593 33.7577 52.3428 33.6934 52.1096C33.6291 51.8764 33.6163 51.632 33.656 51.3933L35.0727 42.8866C35.1153 42.572 35.0781 42.2517 34.9645 41.9552C34.8509 41.6587 34.6646 41.3956 34.4227 41.19C33.1708 40.062 32.2903 38.5809 31.8974 36.9423C31.5045 35.3036 31.6176 33.5844 32.2217 32.0113C32.8259 30.4382 33.8928 29.0853 35.2816 28.131C36.6704 27.1766 38.3159 26.6658 40.001 26.6658C41.6861 26.6658 43.3316 27.1766 44.7204 28.131C46.1093 29.0853 47.1761 30.4382 47.7803 32.0113C48.3845 33.5844 48.4976 35.3036 48.1046 36.9423C47.7117 38.5809 46.8279 40.062 45.576 41.19Z" fill="white"/>
<path d="M65.6597 47.9178C66.8607 46.4205 69.1393 46.4205 70.3403 47.9178L70.8659 48.5732C71.5663 49.4464 72.6946 49.8571 73.7924 49.6383L74.6163 49.4742C76.4987 49.0991 78.2443 50.5638 78.2018 52.4827L78.1832 53.3227C78.1584 54.4418 78.7588 55.4816 79.7404 56.0197L80.4771 56.4236C82.1602 57.3463 82.5558 59.5903 81.2898 61.033L80.7357 61.6645C79.9973 62.5058 79.7888 63.6883 80.1949 64.7314L80.4996 65.5144C81.1959 67.3031 80.0566 69.2764 78.1594 69.5678L77.329 69.6954C76.2226 69.8653 75.3028 70.6371 74.9433 71.6972L74.6735 72.4928C74.0571 74.3106 71.9159 75.0899 70.2753 74.0937L69.5571 73.6576C68.6003 73.0766 67.3997 73.0766 66.4429 73.6576L65.7247 74.0937C64.0841 75.0899 61.9429 74.3106 61.3265 72.4928L61.0567 71.6972C60.6972 70.6371 59.7774 69.8653 58.671 69.6954L57.8406 69.5678C55.9434 69.2764 54.8041 67.3031 55.5004 65.5144L55.8051 64.7314C56.2112 63.6883 56.0027 62.5058 55.2643 61.6645L54.7102 61.033C53.4442 59.5903 53.8398 57.3463 55.5229 56.4236L56.2596 56.0197C57.2412 55.4816 57.8416 54.4418 57.8168 53.3227L57.7982 52.4827C57.7557 50.5638 59.5013 49.0991 61.3837 49.4742L62.2076 49.6383C63.3054 49.8571 64.4337 49.4464 65.1341 48.5732L65.6597 47.9178Z" fill="#86C8BC"/>
<path fill-rule="evenodd" clip-rule="evenodd" d="M74.3634 56.4074C74.5508 56.5949 74.6562 56.8492 74.6562 57.1144C74.6562 57.3795 74.5508 57.6338 74.3634 57.8214L66.868 65.3167C66.769 65.4158 66.6514 65.4944 66.522 65.548C66.3925 65.6016 66.2538 65.6292 66.1137 65.6292C65.9736 65.6292 65.8349 65.6016 65.7054 65.548C65.576 65.4944 65.4584 65.4158 65.3594 65.3167L61.6354 61.5934C61.5399 61.5011 61.4637 61.3908 61.4113 61.2688C61.3589 61.1468 61.3313 61.0156 61.3301 60.8828C61.329 60.75 61.3543 60.6183 61.4045 60.4954C61.4548 60.3725 61.5291 60.2609 61.623 60.167C61.7169 60.0731 61.8285 59.9988 61.9514 59.9486C62.0743 59.8983 62.206 59.873 62.3388 59.8741C62.4715 59.8753 62.6028 59.9029 62.7248 59.9553C62.8468 60.0077 62.9571 60.0839 63.0494 60.1794L66.1134 63.2434L72.9487 56.4074C73.0416 56.3145 73.1518 56.2407 73.2732 56.1904C73.3946 56.1401 73.5247 56.1143 73.656 56.1143C73.7874 56.1143 73.9175 56.1401 74.0389 56.1904C74.1602 56.2407 74.2705 56.3145 74.3634 56.4074Z" fill="#242424"/>
</svg>
