<svg width="24" height="24" viewBox="0 0 24 24" fill="none" xmlns="http://www.w3.org/2000/svg">
<path d="M19.6327 11.3571H19.2041L16.2903 7.7148C16.1297 7.51407 15.926 7.35202 15.6942 7.24065C15.4625 7.12928 15.2087 7.07144 14.9516 7.07141L7.37427 7.07143C6.67329 7.07143 6.04303 7.49813 5.78267 8.14902L4.36349 11.3571L2.5957 11.4177C1.85749 11.6089 1.8457 12.2735 1.8457 13.0714V16.0714C1.8457 16.3082 2.03749 16.5 2.27427 16.5H3.55999C3.55999 17.9202 4.71124 19.0714 6.13142 19.0714C7.5516 19.0714 8.70285 17.9202 8.70285 16.5L15.347 16.5C15.347 17.9202 16.4982 19.0714 17.9184 19.0714C19.3386 19.0714 20.4898 17.9202 20.4898 16.5H21.7755C22.0123 16.5 22.2041 16.3082 22.2041 16.0714V13.9286C22.2041 12.5084 21.0528 11.3571 19.6327 11.3571ZM6.13142 17.7857C5.4224 17.7857 4.8457 17.209 4.8457 16.5C4.8457 15.791 5.4224 15.2143 6.13142 15.2143C6.84044 15.2143 7.41713 15.791 7.41713 16.5C7.41713 17.209 6.84044 17.7857 6.13142 17.7857ZM11.2755 11.3571L6.3457 11.3571L7.37427 8.78572L11.2755 8.7857V11.3571ZM12.5613 11.3571V8.7857H14.9516L17.0087 11.3571H12.5613ZM17.9184 17.7857C17.2094 17.7857 16.6327 17.209 16.6327 16.5C16.6327 15.791 17.2094 15.2143 17.9184 15.2143C18.6274 15.2143 19.2041 15.791 19.2041 16.5C19.2041 17.209 18.6274 17.7857 17.9184 17.7857Z" fill="black" fill-opacity="0.4"/>
</svg>
